#!OML:ASF \\sashay\E\basketball\basketball\Project 1\Capture day 1\Session 1\Subject.ASF
:FULLY-SPECIFIED
:DEGREES
369
root 29.8328 14.1005 -2.12366 -300.151 -85.4832 297.445
lowerback 24.9248 0.330489 3.49925
upperback 7.78615 0.75009 1.69308
thorax -5.20613 0.0923803 -0.351065
lowerneck -13.9256 7.73888 -6.48512
upperneck -4.14634 11.0061 5.62271
head 0.328054 5.62554 3.39545
rclavicle 2.60408e-014 3.29983e-014
rhumerus 12.8148 -35.1028 -27.6561
rradius 56.4069
rwrist -23.4635
rhand -34.9683 45.0674
rfingers 7.12502
rthumb -8.11416 15.2432
lclavicle 2.60408e-014 3.29983e-014
lhumerus -66.9441 -11.4611 99.6616
lradius 50.8457
lwrist 32.5371
lhand -28.326 13.0548
lfingers 7.12502
lthumb -1.7008 43.0278
rfemur -18.5157 -14.4846 -2.87478
rtibia 29.1937
rfoot -7.96623 -19.2901
rtoes -27.6276
lfemur -19.0619 26.7995 -3.82396
ltibia 76.6576
lfoot -18.7202 -5.63764
ltoes -36.0584
370
root 29.9437 14.1483 -1.91142 -309.564 -85.2823 306.926
lowerback 25.1569 0.133034 3.39768
upperback 7.9977 0.441801 1.45073
thorax -5.09584 -0.0586395 -0.469006
lowerneck -13.6505 7.78994 -6.48667
upperneck -4.56949 11.0715 5.53352
head 0.142207 5.65446 3.33503
rclavicle 2.48481e-016 -6.85807e-015
rhumerus 11.8434 -36.6147 -27.7192
rradius 56.6296
rwrist -24.4383
rhand -34.5667 44.7111
rfingers 7.12502
rthumb -7.72659 14.8722
lclavicle 2.48481e-016 -6.85807e-015
lhumerus -67.4706 -11.7426 99.6736
lradius 51.9948
lwrist 32.0773
lhand -28.3574 12.6083
lfingers 7.12502
lthumb -1.73107 42.581
rfemur -20.2873 -16.4203 -1.93103
rtibia 33.2835
rfoot -7.62998 -15.7889
rtoes -30.4671
lfemur -20.0875 27.182 -5.25753
ltibia 76.845
lfoot -17.6696 -6.19065
ltoes -34.7289
371
root 30.0579 14.1956 -1.69869 -315.269 -85.2509 312.671
lowerback 25.4028 0.0659249 3.23264
upperback 8.33781 0.267182 1.20568
thorax -4.84762 -0.148537 -0.591488
lowerneck -13.4366 7.84945 -6.41773
upperneck -5.21462 11.1387 5.21785
head -0.0885364 5.67865 3.18255
rclavicle 4.82053e-015 9.74045e-015
rhumerus 11.2207 -38.2684 -28.0387
rradius 56.7713
rwrist -25.1112
rhand -33.6481 44.4857
rfingers 7.12502
rthumb -6.83986 14.6162
lclavicle 4.82053e-015 9.74045e-015
lhumerus -67.4609 -11.9835 99.5484
lradius 52.6446
lwrist 31.6225
lhand -28.6238 12.0395
lfingers 7.12502
lthumb -1.98842 42.01
rfemur -22.3725 -18.3621 -0.701464
rtibia 37.5464
rfoot -7.07278 -13.7492
rtoes -35.3223
lfemur -21.0935 27.8952 -6.63598
ltibia 77.1533
lfoot -16.0217 -6.57717
ltoes -33.3002
372
root 30.1727 14.2567 -1.4813 -318.506 -85.4358 315.915
lowerback 25.817 0.156367 2.95138
upperback 8.58211 0.28203 1.0163
thorax -4.78248 -0.150545 -0.640554
lowerneck -12.8731 7.91299 -6.32353
upperneck -5.86342 11.1946 4.77029
head -0.366993 5.69504 2.96328
rclavicle 9.49197e-015 2.17172e-014
rhumerus 10.62 -39.7407 -28.3328
rradius 56.8249
rwrist -25.2976
rhand -33.6142 44.2395
rfingers 7.12502
rthumb -6.80713 14.3689
lclavicle 9.49197e-015 2.17172e-014
lhumerus -67.3356 -12.0677 99.3497
lradius 52.8842
lwrist 31.2371
lhand -28.8441 11.3232
lfingers 7.12502
lthumb -2.20116 41.2915
rfemur -24.4869 -20.1251 0.722234
rtibia 41.7629
rfoot -7.14447 -12.5139
rtoes -37.559
lfemur -21.9575 29.0009 -7.94348
ltibia 77.4574
lfoot -14.0899 -7.15393
ltoes -31.506
373
root 30.2858 14.3281 -1.26255 -320.573 -85.6629 318.098
lowerback 26.937 0.094443 3.06708
upperback 8.21109 0.258092 0.479116
thorax -5.7332 -0.165377 -1.28619
lowerneck -12.1102 7.98573 -5.93847
upperneck -6.01329 11.2241 4.72509
head -0.51893 5.69871 2.83446
rclavicle -3.50358e-015 -1.37658e-014
rhumerus 8.92554 -40.3144 -28.4677
rradius 57.0766
rwrist -25.3624
rhand -33.999 43.9913
rfingers 7.12502
rthumb -7.17859 14.1331
lclavicle -3.50358e-015 -1.37658e-014
lhumerus -68.06 -12.1576 98.6674
lradius 53.1287
lwrist 30.7434
lhand -29.0599 10.6021
lfingers 7.12502
lthumb -2.40959 40.5682
rfemur -26.6651 -21.6914 2.38528
rtibia 45.8358
rfoot -7.50388 -11.9667
rtoes -38.3815
lfemur -22.9144 30.3296 -9.16944
ltibia 77.731
lfoot -11.9386 -7.92435
ltoes -29.0294
374
root 30.397 14.4048 -1.04564 -323.319 -85.8823 321.073
lowerback 27.0363 0.247358 2.69975
upperback 8.60248 0.311499 0.454175
thorax -5.34898 -0.14833 -1.11885
lowerneck -12.1533 7.98502 -6.26211
upperneck -6.54721 11.2596 4.22434
head -0.676745 5.71942 2.71108
rclavicle -1.0312e-014 2.18663e-015
rhumerus 8.38136 -41.5162 -28.5721
rradius 57.2674
rwrist -25.5074
rhand -33.9878 43.9003
rfingers 7.12502
rthumb -7.16778 14.0417
lclavicle -1.0312e-014 2.18663e-015
lhumerus -67.016 -11.9696 98.3365
lradius 52.898
lwrist 29.9859
lhand -29.2792 10.177
lfingers 7.12502
lthumb -2.62135 40.1407
rfemur -28.868 -23.1737 4.16072
rtibia 49.6578
rfoot -8.04969 -11.787
rtoes -38.0294
lfemur -24.0123 31.6892 -10.4539
ltibia 77.9345
lfoot -9.53872 -8.68414
ltoes -27.1144
375
root 30.5073 14.4924 -0.82723 -326.721 -86.0549 324.738
lowerback 27.3259 0.32358 2.47843
upperback 8.78562 0.322306 0.312836
thorax -5.28624 -0.150037 -1.15037
lowerneck -11.8615 8.01304 -6.38952
upperneck -6.96046 11.2964 3.80412
head -0.843397 5.73845 2.56679
rclavicle 1.92076e-014 6.01324e-015
rhumerus 7.46761 -42.2958 -28.609
rradius 57.4468
rwrist -25.6714
rhand -34.062 44.0648
rfingers 7.12502
rthumb -7.23942 14.2087
lclavicle 1.92076e-014 6.01324e-015
lhumerus -66.0134 -11.7955 97.803
lradius 52.335
lwrist 29.3678
lhand -29.3937 10.0063
lfingers 7.12502
lthumb -2.73191 39.9686
rfemur -31.028 -24.6644 6.08688
rtibia 53.1347
rfoot -8.2418 -11.9557
rtoes -38.5182
lfemur -25.1675 33.0303 -11.7427
ltibia 78.0273
lfoot -6.52153 -9.42629
ltoes -25.3059
376
root 30.6142 14.5859 -0.607723 -328.021 -86.2391 326.314
lowerback 27.8154 0.399683 2.53412
upperback 8.72871 0.422062 0.0350858
thorax -5.57632 -0.104274 -1.52046
lowerneck -11.1987 7.99593 -6.31177
upperneck -7.1656 11.2419 3.61602
head -0.999309 5.70891 2.45071
rclavicle -1.98785e-015 -2.15681e-014
rhumerus 5.77034 -42.5857 -28.3244
rradius 57.689
rwrist -25.9031
rhand -34.2834 44.4616
rfingers 7.12502
rthumb -7.4531 14.6129
lclavicle -1.98785e-015 -2.15681e-014
lhumerus -65.2979 -11.7779 96.983
lradius 51.6717
lwrist 29.0402
lhand -29.272 9.87147
lfingers 7.12502
lthumb -2.61443 39.8352
rfemur -33.1701 -25.9151 8.29175
rtibia 56.2321
rfoot -8.2707 -12.2933
rtoes -39.4129
lfemur -26.2799 34.4478 -12.7964
ltibia 78.0217
lfoot -3.01669 -10.1819
ltoes -22.484
377
root 30.7171 14.6768 -0.392364 -329.883 -86.4364 328.483
lowerback 28.2448 0.495151 2.69653
upperback 8.73794 0.554255 -0.38413
thorax -5.75579 -0.0416742 -2.12126
lowerneck -10.8479 7.96893 -6.11944
upperneck -7.40187 11.1727 3.45921
head -1.10816 5.66979 2.34185
rclavicle 1.61016e-014 7.85199e-015
rhumerus 3.81978 -42.9883 -28.0757
rradius 57.9277
rwrist -26.1122
rhand -34.3734 44.7357
rfingers 7.12502
rthumb -7.54003 14.89
lclavicle 1.61016e-014 7.85199e-015
lhumerus -64.3575 -12.0508 95.9421
lradius 51.0787
lwrist 28.8748
lhand -29.0887 10.2509
lfingers 7.12502
lthumb -2.43735 40.2168
rfemur -35.1993 -26.9192 10.4789
rtibia 58.9892
rfoot -8.79818 -12.2855
rtoes -38.7082
lfemur -27.3358 35.7816 -13.7759
ltibia 77.9006
lfoot 0.317052 -11.4937
ltoes -19.5638
378
root 30.8215 14.762 -0.179155 -335.265 -86.5032 334.287
lowerback 28.3136 0.702866 2.26279
upperback 9.03923 0.672816 -0.331264
thorax -5.45521 0.00781415 -1.8494
lowerneck -10.7322 7.95517 -6.43206
upperneck -8.22779 11.1554 2.81793
head -1.3744 5.67044 2.15828
rclavicle -1.1778e-014 -2.08724e-015
rhumerus 3.08767 -43.6258 -27.9429
rradius 57.8305
rwrist -26.123
rhand -34.5045 44.9146
rfingers 7.12502
rthumb -7.66656 15.0736
lclavicle -1.1778e-014 -2.08724e-015
lhumerus -62.5103 -11.837 95.452
lradius 50.2282
lwrist 28.6224
lhand -29.1271 11.2785
lfingers 7.12502
lthumb -2.47449 41.2439
rfemur -37.2158 -27.8702 12.5114
rtibia 61.4317
rfoot -9.46679 -11.892
rtoes -38.2159
lfemur -28.5468 36.7162 -14.9152
ltibia 77.733
lfoot 3.6903 -13.4091
ltoes -14.5618
